<svg width="19" height="22" viewBox="0 0 19 22" fill="none" xmlns="http://www.w3.org/2000/svg">
<path fill-rule="evenodd" clip-rule="evenodd" d="M18.0227 15.9502L16.9136 14.7655V10.7827C16.9179 7.67382 15.0613 4.86419 12.1998 3.64899V3.19526C12.3027 2.09042 11.7714 1.02252 10.8281 0.438221C9.88472 -0.146074 8.69195 -0.146074 7.74862 0.438221C6.80529 1.02252 6.27396 2.09042 6.37688 3.19526V3.64899C3.50546 4.85642 1.63786 7.66775 1.63788 10.7827V14.7403L0.528756 15.925C-0.0107306 16.5147 -0.151049 17.3674 0.171019 18.0988C0.493086 18.8303 1.21675 19.3026 2.01599 19.3028H5.82231C6.21412 20.8798 7.62558 21.9903 9.25052 22H9.30094C10.9186 21.9933 12.3276 20.895 12.7291 19.328H16.5607C17.3599 19.3278 18.0836 18.8555 18.4057 18.124C18.7277 17.3926 18.5874 16.5399 18.0479 15.9502H18.0227ZM7.8641 3.19531C7.79083 2.65066 8.04032 2.11299 8.50353 1.81727C8.96675 1.52155 9.55948 1.52155 10.0227 1.81727C10.4859 2.11299 10.7354 2.65066 10.6621 3.19531C9.73774 3.01948 8.78849 3.01948 7.8641 3.19531ZM9.30105 20.5128H9.25064C8.46531 20.5123 7.74984 20.0615 7.4105 19.3533H11.1412C10.7947 20.0517 10.0807 20.4918 9.30105 20.4876V20.5128ZM17.0144 17.5131C16.9409 17.6986 16.7601 17.8191 16.5606 17.8156H1.99076C1.78446 17.8231 1.59442 17.7041 1.5111 17.5152C1.42777 17.3264 1.46801 17.1058 1.61265 16.9585L2.92343 15.5469C3.05075 15.4096 3.1226 15.23 3.12509 15.0427V10.7827C3.12509 8.59428 4.29259 6.57212 6.18779 5.47792C8.083 4.38373 10.418 4.38373 12.3132 5.47792C14.2084 6.57212 15.3759 8.59428 15.3759 10.7827V15.0427C15.3784 15.23 15.4502 15.4096 15.5776 15.5469L16.8883 16.9585C17.0474 17.0957 17.0985 17.3206 17.0144 17.5131Z" fill="black"/>
</svg>
