<svg width="16" height="16" viewBox="0 0 16 16" fill="none" xmlns="http://www.w3.org/2000/svg">
<path fill-rule="evenodd" clip-rule="evenodd" d="M7.28179 13.7779C8.8124 13.7779 10.2253 13.2599 11.3556 12.4122L14.1578 15.2144L15.5 13.8721L12.6978 11.0699C13.5455 9.93963 14.0636 8.52676 14.0636 6.99615C14.0636 3.25203 11.0259 0.214355 7.28179 0.214355C3.53768 0.214355 0.5 3.25203 0.5 6.99615C0.5 10.7403 3.53768 13.7779 7.28179 13.7779ZM7.28179 2.09819C9.9898 2.09819 12.1797 4.28814 12.1797 6.99615C12.1797 9.70415 9.9898 11.8941 7.28179 11.8941C4.57378 11.8941 2.38383 9.70415 2.38383 6.99615C2.38383 4.28814 4.57378 2.09819 7.28179 2.09819Z" fill="black"/>
</svg>
